<svg width="569" height="342" viewBox="0 0 569 342" fill="none" xmlns="http://www.w3.org/2000/svg">
<g clip-path="url(#clip0)">
<path d="M542.593 342H61.6697C57.393 342 53.2913 340.375 50.2672 337.483C47.2431 334.591 45.5441 330.668 45.5441 326.578C219.879 307.202 390.937 307.202 558.719 326.578C558.719 330.668 557.02 334.591 553.995 337.483C550.971 340.375 546.87 342 542.593 342Z" fill="#CCCCCC"/>
<path d="M558.719 327.485L45.5441 326.578L105.019 230.873L105.304 230.419V19.4949C105.304 16.9347 105.831 14.3996 106.855 12.0343C107.879 9.66894 109.381 7.51976 111.274 5.70945C113.167 3.89914 115.414 2.46316 117.887 1.48353C120.361 0.503896 123.011 -0.000213864 125.688 6.80621e-08H475.728C478.405 -0.000213864 481.056 0.503896 483.53 1.48353C486.003 2.46316 488.25 3.89914 490.143 5.70945C492.036 7.51976 493.538 9.66894 494.562 12.0343C495.586 14.3996 496.113 16.9347 496.113 19.4949V231.871L558.719 327.485Z" fill="#E6E6E6"/>
<path d="M125.224 13.6074C123.463 13.6093 121.776 14.279 120.531 15.4694C119.286 16.6599 118.586 18.274 118.584 19.9576V212.276C118.586 213.959 119.286 215.573 120.531 216.764C121.776 217.954 123.463 218.624 125.224 218.626H479.039C480.799 218.624 482.487 217.954 483.732 216.764C484.977 215.573 485.677 213.959 485.679 212.276V19.9576C485.677 18.274 484.977 16.66 483.732 15.4695C482.487 14.2791 480.799 13.6094 479.039 13.6074H125.224Z" fill="white"/>
<path d="M127.549 244.026C127.005 244.027 126.473 244.177 126.015 244.458C125.556 244.738 125.192 245.138 124.964 245.61L106.637 283.711C106.438 284.126 106.351 284.582 106.384 285.037C106.417 285.493 106.569 285.933 106.826 286.317C107.084 286.701 107.438 287.017 107.857 287.236C108.276 287.456 108.745 287.57 109.222 287.57H494.611C495.096 287.57 495.573 287.452 495.997 287.226C496.421 287 496.777 286.674 497.032 286.279C497.287 285.885 497.432 285.434 497.454 284.971C497.475 284.508 497.373 284.046 497.156 283.632L477.236 245.531C477.001 245.078 476.638 244.697 476.188 244.431C475.739 244.165 475.22 244.025 474.691 244.027L127.549 244.026Z" fill="#CCCCCC"/>
<path d="M300.708 10.4324C303.066 10.4324 304.977 8.60469 304.977 6.35013C304.977 4.09558 303.066 2.26791 300.708 2.26791C298.351 2.26791 296.44 4.09558 296.44 6.35013C296.44 8.60469 298.351 10.4324 300.708 10.4324Z" fill="white"/>
<path d="M262.828 294.828C262.202 294.828 261.594 295.026 261.098 295.39C260.601 295.754 260.244 296.264 260.08 296.841L255.483 313.17C255.37 313.573 255.355 313.996 255.439 314.406C255.524 314.816 255.706 315.202 255.972 315.533C256.238 315.865 256.58 316.134 256.971 316.318C257.363 316.503 257.794 316.6 258.231 316.599H345.654C346.108 316.599 346.555 316.496 346.958 316.297C347.361 316.098 347.709 315.81 347.972 315.456C348.235 315.103 348.406 314.694 348.47 314.265C348.535 313.836 348.491 313.398 348.342 312.988L342.432 296.659C342.239 296.124 341.876 295.661 341.394 295.332C340.912 295.004 340.335 294.828 339.743 294.828H262.828Z" fill="#CCCCCC"/>
<path d="M496.113 227.244V230.873H105.019L105.313 230.419V227.244H496.113Z" fill="#CCCCCC"/>
<path d="M447.84 235.556C447.688 235.556 447.54 235.605 447.419 235.693C447.298 235.782 447.211 235.906 447.171 236.047L446.052 240.023C446.024 240.121 446.02 240.224 446.041 240.324C446.062 240.424 446.106 240.518 446.171 240.598C446.235 240.679 446.319 240.745 446.414 240.79C446.51 240.835 446.614 240.858 446.721 240.858H468.01C468.12 240.858 468.229 240.833 468.327 240.784C468.425 240.736 468.51 240.666 468.574 240.58C468.638 240.494 468.68 240.394 468.695 240.29C468.711 240.185 468.7 240.078 468.664 239.979L467.225 236.002C467.178 235.872 467.09 235.759 466.972 235.679C466.855 235.599 466.714 235.556 466.57 235.556H447.84Z" fill="#CCCCCC"/>
<path d="M416.756 235.556C416.603 235.556 416.455 235.605 416.334 235.693C416.214 235.782 416.126 235.906 416.087 236.047L414.967 240.023C414.94 240.121 414.936 240.224 414.957 240.324C414.977 240.424 415.022 240.518 415.086 240.598C415.151 240.679 415.234 240.745 415.33 240.79C415.425 240.835 415.53 240.858 415.636 240.858H436.925C437.036 240.858 437.145 240.833 437.243 240.784C437.341 240.736 437.426 240.666 437.49 240.58C437.554 240.494 437.595 240.394 437.611 240.29C437.627 240.185 437.616 240.078 437.58 239.979L436.141 236.002C436.094 235.872 436.005 235.759 435.888 235.679C435.77 235.599 435.63 235.556 435.486 235.556H416.756Z" fill="#CCCCCC"/>
<path d="M326.698 260.822H328.366L325.029 47.534H323.361L323.427 51.7891H286.031L286.098 47.534H284.429L281.092 260.822H282.761L282.977 246.993H326.482L326.698 260.822ZM324.293 107.106H285.166L285.573 81.0431H323.885L324.293 107.106ZM324.318 108.701L324.726 134.764H284.733L285.141 108.701H324.318ZM324.751 136.36L325.158 162.422H284.3L284.708 136.36H324.751ZM325.183 164.018L325.591 190.081H283.868L284.275 164.018H325.183ZM325.616 191.676L326.024 217.739H283.435L283.842 191.676H325.616ZM323.452 53.3848L323.86 79.4474H285.598L286.006 53.3848H323.452ZM283.002 245.397L283.41 219.335H326.049L326.457 245.397H283.002Z" fill="#3F3D56"/>
<path d="M296.464 120.997C311.49 120.997 323.671 109.348 323.671 94.9781C323.671 80.6081 311.49 68.9588 296.464 68.9588C281.438 68.9588 269.257 80.6081 269.257 94.9781C269.257 109.348 281.438 120.997 296.464 120.997Z" fill="#2F2E41"/>
<path d="M312.467 112.96L304.334 114.368L306.972 128.304L315.105 126.896L312.467 112.96Z" fill="#2F2E41"/>
<path d="M296.201 115.776L288.068 117.184L290.705 131.12L298.839 129.712L296.201 115.776Z" fill="#2F2E41"/>
<path d="M295.023 134.052C297.926 131.701 299.532 128.951 298.61 127.91C297.688 126.869 294.587 127.931 291.684 130.282C288.782 132.634 287.176 135.383 288.098 136.425C289.02 137.466 292.12 136.404 295.023 134.052Z" fill="#2F2E41"/>
<path d="M310.951 131.295C313.853 128.944 315.459 126.194 314.537 125.153C313.615 124.112 310.515 125.174 307.612 127.525C304.709 129.876 303.103 132.626 304.025 133.667C304.947 134.708 308.048 133.646 310.951 131.295Z" fill="#2F2E41"/>
<path d="M294.559 97.5063C299.694 97.5063 303.858 93.5249 303.858 88.6136C303.858 83.7024 299.694 79.721 294.559 79.721C289.424 79.721 285.26 83.7024 285.26 88.6136C285.26 93.5249 289.424 97.5063 294.559 97.5063Z" fill="white"/>
<path d="M290.737 88.3903C292.449 88.3903 293.837 87.0632 293.837 85.4261C293.837 83.789 292.449 82.4619 290.737 82.4619C289.026 82.4619 287.638 83.789 287.638 85.4261C287.638 87.0632 289.026 88.3903 290.737 88.3903Z" fill="#3F3D56"/>
<path d="M317.926 66.6719C318.335 57.0392 309.654 48.8802 298.537 48.4484C287.419 48.0165 278.075 55.4752 277.666 65.1079C277.256 74.7407 284.985 76.9293 296.102 77.3612C307.22 77.7931 317.517 76.3046 317.926 66.6719Z" fill="#E63946"/>
<path d="M284.602 93.1445C285.128 90.9459 279.619 87.8622 272.296 86.2569C264.973 84.6517 258.609 85.1326 258.082 87.3312C257.555 89.5298 263.065 92.6134 270.388 94.2187C277.711 95.824 284.075 95.343 284.602 93.1445Z" fill="#2F2E41"/>
<path d="M338.007 101.638C338.534 99.4396 333.025 96.3559 325.702 94.7507C318.379 93.1454 312.015 93.6263 311.488 95.8249C310.961 98.0235 316.471 101.107 323.794 102.712C331.117 104.318 337.481 103.837 338.007 101.638Z" fill="#2F2E41"/>
<path d="M303.936 105.232C304.083 105.998 304.07 106.785 303.899 107.546C303.727 108.308 303.4 109.029 302.937 109.67C302.474 110.311 301.883 110.858 301.199 111.28C300.515 111.703 299.75 111.992 298.949 112.131C298.147 112.271 297.325 112.258 296.529 112.093C295.733 111.929 294.978 111.616 294.309 111.172C293.639 110.729 293.067 110.163 292.626 109.509C292.185 108.854 291.884 108.122 291.739 107.356L291.736 107.344C291.126 104.122 293.731 102.982 297.1 102.399C300.469 101.816 303.326 102.01 303.936 105.232Z" fill="white"/>
<path d="M204.315 183.349C207.065 176.469 207.463 170.223 205.205 169.397C202.947 168.572 198.887 173.48 196.137 180.36C193.387 187.24 192.989 193.486 195.247 194.312C197.506 195.137 201.566 190.229 204.315 183.349Z" fill="#2F2E41"/>
<path d="M201.977 206.269C204.445 191.728 194.119 178.028 178.915 175.668C163.711 173.308 149.385 183.183 146.918 197.724C144.45 212.264 154.776 225.965 169.98 228.324C185.184 230.684 199.51 220.809 201.977 206.269Z" fill="#2F2E41"/>
<path d="M170.211 222.929H161.738V237.447H170.211V222.929Z" fill="#2F2E41"/>
<path d="M187.157 222.929H178.684V237.447H187.157V222.929Z" fill="#2F2E41"/>
<path d="M168.799 240.148C172.698 240.148 175.86 239.014 175.86 237.616C175.86 236.217 172.698 235.084 168.799 235.084C164.899 235.084 161.738 236.217 161.738 237.616C161.738 239.014 164.899 240.148 168.799 240.148Z" fill="#2F2E41"/>
<path d="M185.745 239.811C189.644 239.811 192.805 238.677 192.805 237.278C192.805 235.88 189.644 234.746 185.745 234.746C181.845 234.746 178.684 235.88 178.684 237.278C178.684 238.677 181.845 239.811 185.745 239.811Z" fill="#2F2E41"/>
<path d="M147.393 177.191C145.141 167.546 152.34 157.8 163.472 155.423C174.604 153.046 185.454 158.938 187.706 168.583C189.958 178.228 182.58 181.785 171.448 184.163C160.316 186.54 149.645 186.837 147.393 177.191Z" fill="#E63946"/>
<path d="M155.634 195.335C156.67 193.246 151.869 188.994 144.91 185.837C137.951 182.681 131.47 181.816 130.434 183.905C129.398 185.994 134.199 190.246 141.158 193.403C148.117 196.559 154.598 197.424 155.634 195.335Z" fill="#2F2E41"/>
<path d="M53.6859 255.676C69.0891 255.676 81.5759 243.734 81.5759 229.003C81.5759 214.272 69.0891 202.331 53.6859 202.331C38.2826 202.331 25.7958 214.272 25.7958 229.003C25.7958 243.734 38.2826 255.676 53.6859 255.676Z" fill="#2F2E41"/>
<path d="M49.4494 249.936H40.9764V264.454H49.4494V249.936Z" fill="#2F2E41"/>
<path d="M66.3952 249.936H57.9223V264.454H66.3952V249.936Z" fill="#2F2E41"/>
<path d="M48.0372 267.155C51.9368 267.155 55.098 266.022 55.098 264.623C55.098 263.225 51.9368 262.091 48.0372 262.091C44.1377 262.091 40.9764 263.225 40.9764 264.623C40.9764 266.022 44.1377 267.155 48.0372 267.155Z" fill="#2F2E41"/>
<path d="M64.9831 266.818C68.8826 266.818 72.0439 265.684 72.0439 264.286C72.0439 262.887 68.8826 261.753 64.9831 261.753C61.0835 261.753 57.9223 262.887 57.9223 264.286C57.9223 265.684 61.0835 266.818 64.9831 266.818Z" fill="#2F2E41"/>
<path d="M54.392 231.367C59.6564 231.367 63.924 227.285 63.924 222.251C63.924 217.216 59.6564 213.135 54.392 213.135C49.1276 213.135 44.8599 217.216 44.8599 222.251C44.8599 227.285 49.1276 231.367 54.392 231.367Z" fill="white"/>
<path d="M54.392 225.289C56.1468 225.289 57.5693 223.929 57.5693 222.251C57.5693 220.573 56.1468 219.212 54.392 219.212C52.6371 219.212 51.2146 220.573 51.2146 222.251C51.2146 223.929 52.6371 225.289 54.392 225.289Z" fill="#3F3D56"/>
<path d="M26.6316 204.199C24.3796 194.553 31.5783 184.807 42.7104 182.43C53.8424 180.053 64.6923 185.945 66.9443 195.59C69.1963 205.235 61.8187 208.793 50.6866 211.17C39.5546 213.547 28.8836 213.844 26.6316 204.199Z" fill="#E63946"/>
<path d="M74.0218 133.715C76.7715 126.835 77.1698 120.588 74.9114 119.763C72.6529 118.937 68.593 123.845 65.8433 130.725C63.0936 137.605 62.6954 143.852 64.9538 144.677C67.2122 145.503 71.2721 140.595 74.0218 133.715Z" fill="#2F2E41"/>
<path d="M71.6837 156.634C74.151 142.094 63.8256 128.393 48.6213 126.033C33.4169 123.674 19.0912 133.549 16.6239 148.089C14.1565 162.63 24.4819 176.33 39.6863 178.69C54.8906 181.05 69.2164 171.175 71.6837 156.634Z" fill="#2F2E41"/>
<path d="M39.9173 173.295H31.4444V187.813H39.9173V173.295Z" fill="#2F2E41"/>
<path d="M56.8632 173.295H48.3903V187.813H56.8632V173.295Z" fill="#2F2E41"/>
<path d="M38.5052 190.514C42.4047 190.514 45.566 189.38 45.566 187.981C45.566 186.583 42.4047 185.449 38.5052 185.449C34.6056 185.449 31.4444 186.583 31.4444 187.981C31.4444 189.38 34.6056 190.514 38.5052 190.514Z" fill="#2F2E41"/>
<path d="M55.451 190.176C59.3506 190.176 62.5118 189.042 62.5118 187.644C62.5118 186.245 59.3506 185.112 55.451 185.112C51.5515 185.112 48.3903 186.245 48.3903 187.644C48.3903 189.042 51.5515 190.176 55.451 190.176Z" fill="#2F2E41"/>
<path d="M44.8599 154.725C50.1243 154.725 54.3919 150.644 54.3919 145.609C54.3919 140.575 50.1243 136.493 44.8599 136.493C39.5955 136.493 35.3278 140.575 35.3278 145.609C35.3278 150.644 39.5955 154.725 44.8599 154.725Z" fill="white"/>
<path d="M44.8599 148.648C46.6147 148.648 48.0373 147.287 48.0373 145.609C48.0373 143.931 46.6147 142.57 44.8599 142.57C43.1051 142.57 41.6826 143.931 41.6826 145.609C41.6826 147.287 43.1051 148.648 44.8599 148.648Z" fill="#3F3D56"/>
<path d="M17.0995 127.557C14.8475 117.912 22.0463 108.166 33.1783 105.788C44.3104 103.411 55.1603 109.303 57.4123 118.948C59.6643 128.594 52.2866 132.151 41.1546 134.528C30.0225 136.905 19.3515 137.202 17.0995 127.557Z" fill="#E63946"/>
<path d="M25.34 145.701C26.3761 143.611 21.5749 139.359 14.6163 136.203C7.65768 133.046 1.17667 132.181 0.140587 134.27C-0.895499 136.36 3.90568 140.612 10.8643 143.768C17.8229 146.925 24.3039 147.79 25.34 145.701Z" fill="#2F2E41"/>
<path d="M30.4543 161.984C30.4543 164.595 37.4828 169.75 45.2819 169.75C53.081 169.75 60.3935 162.4 60.3935 159.789C60.3935 157.179 53.081 160.296 45.2819 160.296C37.4828 160.296 30.4543 159.374 30.4543 161.984Z" fill="white"/>
<path d="M71.5742 50.5175C71.0592 50.518 70.5653 50.7139 70.2011 51.0623C69.8369 51.4106 69.632 51.8829 69.6315 52.3755V129.172C69.632 129.664 69.8369 130.137 70.2011 130.485C70.5653 130.833 71.0592 131.029 71.5742 131.03H257.433C257.948 131.029 258.442 130.833 258.806 130.485C259.17 130.137 259.375 129.664 259.376 129.172V52.3755C259.375 51.8829 259.17 51.4106 258.806 51.0623C258.442 50.7139 257.948 50.518 257.433 50.5175H71.5742Z" fill="#457B9D"/>
<path d="M121.759 108.809C132.174 108.809 140.618 100.734 140.618 90.7736C140.618 80.8129 132.174 72.7382 121.759 72.7382C111.344 72.7382 102.9 80.8129 102.9 90.7736C102.9 100.734 111.344 108.809 121.759 108.809Z" fill="white"/>
<path d="M164.322 88.374C163.744 88.383 163.192 88.6092 162.786 89.0037C162.381 89.3982 162.153 89.9293 162.153 90.4827C162.153 91.036 162.381 91.5671 162.786 91.9616C163.192 92.3561 163.744 92.5822 164.322 92.5913H223.865C224.155 92.5961 224.443 92.5462 224.713 92.4446C224.982 92.3429 225.228 92.1914 225.436 91.9988C225.645 91.8062 225.811 91.5762 225.926 91.322C226.042 91.0678 226.104 90.7944 226.108 90.5173C226.113 90.2402 226.061 89.965 225.954 89.7073C225.848 89.4496 225.689 89.2145 225.488 89.0155C225.286 88.8164 225.045 88.6573 224.779 88.5472C224.514 88.4372 224.228 88.3783 223.938 88.374C223.914 88.3736 223.89 88.3736 223.865 88.374H164.322Z" fill="white"/>
<path d="M164.322 76.1564C163.744 76.1655 163.192 76.3917 162.786 76.7862C162.381 77.1806 162.153 77.7118 162.153 78.2651C162.153 78.8184 162.381 79.3496 162.786 79.7441C163.192 80.1385 163.744 80.3647 164.322 80.3738H194.057C194.346 80.3786 194.634 80.3287 194.904 80.227C195.173 80.1254 195.419 79.9739 195.628 79.7813C195.836 79.5887 196.003 79.3587 196.118 79.1045C196.233 78.8503 196.295 78.5768 196.3 78.2998C196.304 78.0227 196.252 77.7474 196.146 77.4898C196.039 77.2321 195.88 76.997 195.679 76.7979C195.477 76.5989 195.237 76.4398 194.971 76.3297C194.705 76.2196 194.419 76.1607 194.129 76.1564C194.105 76.156 194.081 76.156 194.057 76.1564H164.322Z" fill="white"/>
<path d="M164.322 101.173C163.744 101.182 163.192 101.409 162.786 101.803C162.381 102.198 162.153 102.729 162.153 103.282C162.153 103.835 162.381 104.367 162.786 104.761C163.192 105.155 163.744 105.382 164.322 105.391H223.865C224.155 105.395 224.443 105.346 224.713 105.244C224.982 105.142 225.228 104.991 225.436 104.798C225.645 104.606 225.811 104.376 225.926 104.121C226.042 103.867 226.104 103.594 226.108 103.317C226.113 103.04 226.061 102.764 225.954 102.507C225.848 102.249 225.689 102.014 225.488 101.815C225.286 101.616 225.045 101.457 224.779 101.347C224.514 101.237 224.228 101.178 223.938 101.173C223.914 101.173 223.89 101.173 223.865 101.173H164.322Z" fill="white"/>
<path d="M453.502 243.224C455.761 242.398 455.363 236.152 452.613 229.272C449.863 222.392 445.803 217.484 443.545 218.309C441.286 219.135 441.685 225.381 444.434 232.261C447.184 239.141 451.244 244.049 453.502 243.224Z" fill="#2F2E41"/>
<path d="M472.942 282.81C488.146 280.451 498.471 266.75 496.004 252.21C493.537 237.669 479.211 227.794 464.007 230.154C448.802 232.513 438.477 246.214 440.944 260.755C443.411 275.295 457.737 285.17 472.942 282.81Z" fill="#2F2E41"/>
<path d="M481.183 277.415H472.711L474.369 294.802L481.198 293.027L481.183 277.415Z" fill="#2F2E41"/>
<path d="M462.712 277.46H454.239L455.897 294.847L462.418 293.027L462.712 277.46Z" fill="#2F2E41"/>
<path d="M455.656 295.664C459.545 295.392 462.611 294.04 462.505 292.646C462.398 291.251 459.159 290.341 455.27 290.613C451.381 290.885 448.314 292.236 448.421 293.63C448.527 295.025 451.767 295.935 455.656 295.664Z" fill="#2F2E41"/>
<path d="M467.768 258.845C473.032 258.845 477.3 254.764 477.3 249.73C477.3 244.695 473.032 240.614 467.768 240.614C462.504 240.614 458.236 244.695 458.236 249.73C458.236 254.764 462.504 258.845 467.768 258.845Z" fill="white"/>
<path d="M467.768 252.768C469.523 252.768 470.945 251.408 470.945 249.73C470.945 248.051 469.523 246.691 467.768 246.691C466.013 246.691 464.591 248.051 464.591 249.73C464.591 251.408 466.013 252.768 467.768 252.768Z" fill="#3F3D56"/>
<path d="M501.466 240.4C506.042 234.475 508.175 228.559 506.23 227.185C504.285 225.812 498.999 229.501 494.423 235.425C489.848 241.35 487.715 247.266 489.66 248.64C491.604 250.014 496.89 246.325 501.466 240.4Z" fill="#2F2E41"/>
<path d="M454.866 270.235C454.866 268.084 460.659 263.835 467.087 263.835C473.515 263.835 479.541 269.892 479.541 272.044C479.541 274.195 473.515 271.626 467.087 271.626C460.659 271.626 454.866 272.387 454.866 270.235Z" fill="white"/>
<path d="M546.682 234.44L394.015 214.2C392.825 214.041 391.749 213.437 391.024 212.52C390.299 211.603 389.984 210.449 390.147 209.31L407.31 90.9131C407.476 89.7748 408.108 88.7461 409.066 88.0526C410.025 87.3592 411.232 87.0577 412.422 87.2142L565.089 107.454C566.279 107.614 567.355 108.218 568.08 109.134C568.805 110.051 569.12 111.205 568.957 112.344L551.794 230.741C551.628 231.879 550.996 232.908 550.038 233.602C549.079 234.295 547.872 234.597 546.682 234.44Z" fill="#457B9D"/>
<path d="M491.99 197.49L414.049 187.157C413.951 187.145 413.855 187.125 413.761 187.096L459.475 130.919C459.755 130.569 460.127 130.296 460.554 130.128C460.981 129.96 461.446 129.904 461.903 129.964C462.36 130.025 462.792 130.2 463.155 130.473C463.517 130.745 463.798 131.105 463.968 131.515L482.767 175.773L483.668 177.891L491.99 197.49Z" fill="white"/>
<path opacity="0.2" d="M491.99 197.49L465.379 193.962L481.072 177.547L482.202 176.365L482.767 175.774L483.668 177.892L491.99 197.49Z" fill="black"/>
<path d="M535.386 203.243L467.974 194.306L483.668 177.891L484.797 176.709L505.248 155.317C505.601 154.996 506.021 154.749 506.481 154.593C506.94 154.437 507.429 154.375 507.915 154.412C508.401 154.448 508.874 154.582 509.303 154.804C509.731 155.027 510.106 155.333 510.403 155.703C510.478 155.807 510.545 155.915 510.606 156.028L535.386 203.243Z" fill="white"/>
<path d="M492.938 149.99C499.375 149.99 504.594 144.999 504.594 138.842C504.594 132.686 499.375 127.694 492.938 127.694C486.5 127.694 481.281 132.686 481.281 138.842C481.281 144.999 486.5 149.99 492.938 149.99Z" fill="white"/>
<path d="M429.138 98.1866L415.026 96.3156L413.07 109.812L427.182 111.683L429.138 98.1866Z" fill="#3F3D56"/>
<path d="M495.528 231.677C497.78 222.032 490.582 212.286 479.45 209.909C468.317 207.532 457.468 213.423 455.216 223.069C452.964 232.714 460.341 236.271 471.473 238.648C482.605 241.026 493.276 241.323 495.528 231.677Z" fill="#E63946"/>
<path d="M474.237 295.621C478.126 295.349 481.192 293.998 481.086 292.603C480.979 291.208 477.74 290.298 473.851 290.57C469.962 290.842 466.895 292.193 467.002 293.588C467.108 294.982 470.348 295.893 474.237 295.621Z" fill="#2F2E41"/>
</g>
<defs>
<clipPath id="clip0">
<rect width="569" height="342" fill="white"/>
</clipPath>
</defs>
</svg>
